<svg xmlns="http://www.w3.org/2000/svg" viewBox="0 0 100 100" style="--_av-bg-light:#fde68a;--_av-bg-dark:#92400e"><style>.av-bg{fill:var(--_av-bg-light)}@media (prefers-color-scheme:dark){.av-bg{fill:var(--_av-bg-dark)}}</style><rect class="av-bg" width="100" height="100" rx="24"/><rect x="18" y="66" width="64" height="25" rx="12" fill="#5c6672"/><ellipse cx="50" cy="45" rx="20" ry="23" fill="#f5cfae"/><path d="M30 36q1-12 8-15 3 3 6 3t6-3q7 3 8 15-4-2-6-1 0-8-8-8t-8 8q-2-1-6 1" fill="#cfc9c2"/><path d="M37 53q3 12 13 12t13-12q3 10-3 16-5 4-10 4t-10-4q-6-6-3-16" fill="#cfc9c2"/><path d="M45 57q5 3 10 0" fill="none" stroke="#b98a63" stroke-width="2" stroke-linecap="round"/><circle cx="42" cy="45" r="2.4" fill="#3d2f28"/><circle cx="58" cy="45" r="2.4" fill="#3d2f28"/><path d="M38 40q4-2 8 0" fill="none" stroke="#cfc9c2" stroke-width="2.4" stroke-linecap="round"/><path d="M54 40q4-2 8 0" fill="none" stroke="#cfc9c2" stroke-width="2.4" stroke-linecap="round"/></svg>
