<svg xmlns="http://www.w3.org/2000/svg" viewBox="0 0 100 100"><rect width="100" height="100" rx="24" fill="#2c003e"/><circle cx="50" cy="44" r="22" fill="#ffe0bd"/><g id="hair"><path d="M26 42Q19 30 29 24Q24 14 39 16Q45 8 56 15Q72 10 74 24Q82 31 73 43L67 32Q54 34 48 26Q40 36 32 33L31 44Z" fill="#a876cc"/></g><circle cx="42" cy="40" r="3" fill="#1a1a2e"/><circle cx="58" cy="40" r="3" fill="#1a1a2e"/><path d="M44 50 Q50 55 56 50" fill="none" stroke="#1a1a2e" stroke-width="2" stroke-linecap="round"/><circle cx="50" cy="26" r="4" fill="#e056a0"/><circle cx="42" cy="28" r="3" fill="#00b4d8"/><circle cx="58" cy="28" r="3" fill="#f9c74f"/><rect x="20" y="68" width="60" height="20" rx="8" fill="#5a189a"/><text x="50" y="82" text-anchor="middle" fill="#e0aaff" font-size="9" font-weight="bold">DESIGN</text></svg>
