<svg xmlns="http://www.w3.org/2000/svg" viewBox="0 0 100 100" style="--_av-bg-light:#e0e7ff;--_av-bg-dark:#312e81"><style>.av-bg{fill:var(--_av-bg-light)}@media (prefers-color-scheme:dark){.av-bg{fill:var(--_av-bg-dark)}}</style><rect class="av-bg" width="100" height="100" rx="24"/><path d="M26 46q-2-30 24-30t24 30v24h-7V46q0-20-17-20t-17 20v24h-7z" fill="#171114"/><path d="M18 74l14-6 6 8-6 15H18z" fill="#2b2b33"/><path d="M82 74l-14-6-6 8 6 15h14z" fill="#2b2b33"/><rect x="36" y="64" width="28" height="27" rx="10" fill="#fff"/><ellipse cx="50" cy="45" rx="19" ry="22" fill="#9c6644"/><path d="M31 42q-1-23 19-23t19 23q-8-9-14-9-2 4-10 4t-10-4q-6 0-14 9" fill="#171114"/><ellipse cx="42" cy="46" rx="3.2" ry="3.6" fill="#fff"/><ellipse cx="58" cy="46" rx="3.2" ry="3.6" fill="#fff"/><circle cx="42.5" cy="46.4" r="2" fill="#120c08"/><circle cx="58.5" cy="46.4" r="2" fill="#120c08"/><path d="M45 56q5 4 10 0" fill="none" stroke="#4a241a" stroke-width="2.2" stroke-linecap="round"/></svg>
